<?xml version="1.0" encoding="UTF-8" standalone="no"?>
<svg
   xmlns:dc="http://purl.org/dc/elements/1.1/"
   xmlns:cc="http://creativecommons.org/ns#"
   xmlns:rdf="http://www.w3.org/1999/02/22-rdf-syntax-ns#"
   xmlns:svg="http://www.w3.org/2000/svg"
   xmlns="http://www.w3.org/2000/svg"
   xmlns:sodipodi="http://sodipodi.sourceforge.net/DTD/sodipodi-0.dtd"
   xmlns:inkscape="http://www.inkscape.org/namespaces/inkscape"
   width="200mm"
   height="100mm"
   viewBox="0 0 755.90552 377.95276"
   version="1.1"
   id="svg129"
   inkscape:version="1.0beta2 (2b71d25, 2019-12-03)"
   sodipodi:docname="logo copy.svg"
   inkscape:export-filename="/Users/jonathandequeker/Documents/justejuste/logos-nobg-b.png"
   inkscape:export-xdpi="47.388058"
   inkscape:export-ydpi="47.388058">
  <defs
     id="defs123" />
  <sodipodi:namedview
     fit-margin-bottom="0"
     fit-margin-right="0"
     fit-margin-left="0"
     fit-margin-top="0"
     id="base"
     pagecolor="#ffffff"
     bordercolor="#666666"
     borderopacity="1.0"
     inkscape:pageopacity="0.0"
     inkscape:pageshadow="2"
     inkscape:zoom="0.5404506"
     inkscape:cx="580.79709"
     inkscape:cy="235.93477"
     inkscape:document-units="px"
     inkscape:current-layer="layer1"
     inkscape:document-rotation="0"
     showgrid="false"
     inkscape:window-width="1280"
     inkscape:window-height="747"
     inkscape:window-x="0"
     inkscape:window-y="25"
     inkscape:window-maximized="0" />
  <metadata
     id="metadata126">
    <rdf:RDF>
      <cc:Work
         rdf:about="">
        <dc:format>image/svg+xml</dc:format>
        <dc:type
           rdf:resource="http://purl.org/dc/dcmitype/StillImage" />
        <dc:title></dc:title>
      </cc:Work>
    </rdf:RDF>
  </metadata>
  <g
     transform="translate(-166.88086,-305.92383)"
     inkscape:label="Layer 1"
     inkscape:groupmode="layer"
     id="layer1">
    <path
       sodipodi:nodetypes="ccsccccccccsccccccccccc"
       inkscape:connector-curvature="0"
       d="m 298.54944,324.04695 v 126.61523 17.2168 c 0,7.21837 -1.14489,13.21636 -3.4336,17.99609 -2.1892,4.97482 -5.22461,8.97414 -9.10547,11.99805 -7.96073,6.14537 -16.31936,9.12087 -25.07617,8.92578 -6.56761,0 -12.28812,-1.51125 -17.16406,-4.53516 -4.87595,-2.53618 -8.85662,-5.80532 -11.94141,-9.80468 l -26.57031,18.875 c 12.43864,17.94838 31.29693,27.21551 56.57226,27.80078 13.44947,-0.1433 25.68544,-3.48228 36.71876,-9.99414 v 65.35156 c 0,7.21837 -1.14489,13.21636 -3.4336,17.99609 -2.1892,4.97482 -5.22461,8.97609 -9.10547,12 -7.96073,6.14538 -16.31936,9.11893 -25.07617,8.92383 -6.56761,0 -12.28812,-1.51124 -17.16406,-4.53515 -4.87595,-2.53619 -8.85662,-5.80337 -11.94141,-9.80274 l -26.57031,18.875 c 12.43864,17.94838 31.29693,27.21551 56.57226,27.80078 18.30969,-0.19509 34.37916,-6.29291 48.21094,-18.29101 13.93128,-11.70547 21.09611,-28.28803 21.49414,-49.74805 0,-96.19726 0,-175.76355 0,-273.66406 z"
       style="font-style:normal;font-variant:normal;font-weight:normal;font-stretch:normal;font-size:302.661px;line-height:1.25;font-family:'DIN Alternate';-inkscape-font-specification:'DIN Alternate Normal';font-variant-ligatures:normal;font-variant-caps:normal;font-variant-numeric:normal;font-variant-east-asian:normal;fill:#023020;fill-opacity:1;stroke:none;stroke-width:8.10699"
       id="path843" />
    <path
       sodipodi:nodetypes="ccccccccccscscscccccscscsccc"
       inkscape:connector-curvature="0"
       d="m 368.4049,385.50203 c 1.30457,76.21821 0.19188,163.86974 0,227.57226 0.19902,17.16802 5.91954,30.14278 17.16407,38.92188 10.34896,8.97419 21.94261,13.55881 34.77929,13.7539 16.51852,0 29.9029,-5.99994 40.15235,-17.99804 h 0.5957 v 16.24218 h 31.19727 c 0,-92.34304 0,-195.20326 0,-278.49218 h -31.19727 v 90.42382 c 0,10.24228 -2.88472,18.2409 -8.65625,23.9961 -5.67203,5.75518 -12.98559,8.63281 -21.94141,8.63281 -8.95583,0 -16.32027,-2.87763 -22.09179,-8.63281 -5.87104,-5.7552 -8.80664,-13.75382 -8.80664,-23.9961 v -90.42382 z m 92.09571,135.63671 h 0.5957 v 16.24024 65.16016 c 0,10.24228 -2.88472,18.2409 -8.65625,23.99609 -5.67203,5.75519 -12.98559,8.63281 -21.94141,8.63281 -8.95583,0 -16.32027,-2.87762 -22.09179,-8.63281 -5.87104,-5.75519 -8.80664,-13.75381 -8.80664,-23.99609 v -68.02735 c 6.51209,2.96705 13.42671,4.51178 20.74804,4.62305 16.51852,0 29.9029,-5.998 40.15235,-17.9961 z"
       style="font-style:normal;font-variant:normal;font-weight:normal;font-stretch:normal;font-size:302.661px;line-height:1.25;font-family:'DIN Alternate';-inkscape-font-specification:'DIN Alternate Normal';font-variant-ligatures:normal;font-variant-caps:normal;font-variant-numeric:normal;font-variant-east-asian:normal;fill:#023020;fill-opacity:1;stroke:none;stroke-width:8.10699"
       id="path845" />
    <path
       sodipodi:nodetypes="sccccccssccccccscsccccccccccccccccccccscccccss"
       inkscape:connector-curvature="0"
       d="m 583.34436,383.59968 c -16.51852,0 -30.15145,3.90143 -40.89844,11.70508 -11.04552,7.80364 -16.66817,19.50795 -16.86719,35.11524 0.19902,12.97355 4.47912,23.07068 12.83789,30.28906 8.15975,7.41346 18.75727,11.70445 31.79297,12.875 l 27.46485,2.34179 c 5.77153,0.1951 10.39803,1.41466 13.88085,3.65821 3.38332,2.146 5.07422,5.94955 5.07422,11.41211 0,6.14536 -2.83578,10.92574 -8.50781,14.33984 -4.89481,2.94628 -11.01902,4.61387 -18.35937,5.01758 -16.80582,-1.06468 -64.1846,1.90767 -64.1836,46.68167 0.19902,12.97356 4.47912,23.06874 12.83789,30.28711 8.15975,7.41346 18.75727,11.70641 31.79297,12.87695 l 27.46485,2.33985 c 5.77153,0.19509 10.39803,1.41465 13.88085,3.6582 3.38332,2.14601 5.07422,5.95151 5.07422,11.41406 0,6.14537 -2.83578,10.92381 -8.50781,14.33789 -5.67202,3.4141 -12.98558,5.1211 -21.94141,5.1211 -20.00134,0 -36.32132,-6.48544 -48.95898,-19.45899 l -21.79297,20.92188 c 20.20036,18.14347 42.93952,27.21679 68.21484,27.21679 18.60822,-0.19509 33.88312,-4.39015 45.82422,-12.58398 12.04062,-7.99873 18.16036,-19.36242 18.35938,-34.0918 0,-12.58337 -3.33483,-22.97219 -10.00195,-31.16601 -7.16466,-8.38892 -18.80725,-13.16931 -34.92774,-14.33985 l -25.67187,-1.90234 c -7.5627,-0.78037 -12.837,-2.58524 -15.82227,-5.41406 -3.28381,-2.53619 -4.82597,-5.50974 -4.62695,-8.92383 0,-5.365 2.03926,-9.75583 6.11914,-13.16992 3.53493,-3.10978 9.53349,-4.78726 17.93945,-5.06446 0.93279,0.0251 1.86879,0.041 2.80859,0.041 41.82875,-0.64598 62.44096,-17.33834 64.1836,-46.67578 0,-12.58338 -3.33483,-22.97024 -10.00195,-31.16406 -7.16466,-8.38892 -18.80725,-13.1693 -34.92774,-14.33985 l -25.67187,-1.90234 c -7.5627,-0.78036 -12.837,-2.58524 -15.82227,-5.41407 -3.28381,-2.53618 -4.82597,-5.51168 -4.62695,-8.92578 0,-5.365 2.03926,-9.75387 6.11914,-13.16796 3.88086,-3.4141 10.69732,-5.1211 20.44922,-5.1211 8.55779,0 16.1199,1.21956 22.6875,3.6582 6.66712,2.73128 12.98648,6.19422 18.95703,10.38868 l 19.25586,-22.09375 c -7.5627,-6.43802 -16.12095,-11.55901 -25.67383,-15.36329 -4.97546,-1.75582 -10.29868,-3.1222 -15.9707,-4.09765 -5.67202,-0.87791 -12.0912,-1.31641 -19.25586,-1.31641 z"
       style="font-style:normal;font-variant:normal;font-weight:normal;font-stretch:normal;font-size:302.661px;line-height:1.25;font-family:'DIN Alternate';-inkscape-font-specification:'DIN Alternate Normal';font-variant-ligatures:normal;font-variant-caps:normal;font-variant-numeric:normal;font-variant-east-asian:normal;fill:#023020;fill-opacity:1;stroke:none;stroke-width:8.10699"
       id="path847" />
    <path
       inkscape:connector-curvature="0"
       d="m 681.26037,339.26374 v 46.23829 h -15.52343 v 23.26367 h 15.52343 v 57.11328 34.04297 12.19336 h -15.52343 v 23.26367 h 15.52343 v 91.15625 c 0,11.9981 3.5834,21.16735 10.74805,27.50781 6.96565,6.6331 15.92118,9.95117 26.86719,9.95117 h 16.26953 v -28.82617 h -11.64258 c -7.56269,0.19509 -11.24394,-3.55953 -11.04492,-11.26562 v -86.94141 c 2.05876,0.27356 4.19505,0.41797 6.41797,0.41797 h 16.26953 v -2 -23.26367 -3.56055 h -11.64258 c -7.56269,0.19509 -11.24394,-3.55952 -11.04492,-11.26562 V 465.87898 408.7657 h 22.6875 v -23.26367 h -22.6875 v -46.23829 z"
       style="font-style:normal;font-variant:normal;font-weight:normal;font-stretch:normal;font-size:302.661px;line-height:1.25;font-family:'DIN Alternate';-inkscape-font-specification:'DIN Alternate Normal';font-variant-ligatures:normal;font-variant-caps:normal;font-variant-numeric:normal;font-variant-east-asian:normal;fill:#023020;fill-opacity:1;stroke:none;stroke-width:8.10699"
       id="path849" />
    <path
       sodipodi:nodetypes="ccccscccccscccccccscccccccccccccsccccssccccccs"
       inkscape:connector-curvature="0"
       d="m 820.52404,383.59968 c -7.36368,0 -14.82597,1.31549 -22.38867,3.94922 -7.6622,2.63373 -14.57847,6.92667 -20.74804,12.87695 -6.07006,5.85274 -11.04493,13.85136 -14.92579,23.9961 -3.88086,9.94964 -5.82226,22.43502 -5.82226,37.45703 0,15.60729 2.23888,28.28841 6.7168,38.04297 4.07987,10.14474 9.40309,18.04549 15.9707,23.70312 0.3291,0.26568 0.67205,0.50826 1.00586,0.76563 -0.99804,0.84698 -1.98355,1.72085 -2.94531,2.64844 -6.07006,5.85273 -11.04493,13.85136 -14.92579,23.99609 -3.88086,9.94965 -5.82226,22.43502 -5.82226,37.45703 0,15.60729 2.23888,28.28842 6.7168,38.04297 4.07987,10.14473 9.40309,18.04743 15.9707,23.70508 3.38331,2.73127 7.01562,5.02358 10.89648,6.87695 3.68184,2.146 7.46289,3.853 11.34375,5.12109 7.76172,2.3411 15.72307,3.51172 23.88282,3.51172 21.39446,0.1951 40.00225,-7.99928 55.82421,-24.58203 l -22.53906,-18.875 c -9.95091,9.8521 -21.24514,14.77735 -33.88281,14.77735 -10.8465,0 -19.60242,-3.21825 -26.26953,-9.65625 -7.16466,-6.34046 -10.7461,-15.60759 -10.7461,-27.80079 h 96.57227 v -25.16601 c -0.19759,-19.85309 -6.43343,-35.47123 -18.69531,-46.86328 -13.31046,-12.32018 -26.97752,-17.14313 -45.18946,-17.3711 -0.15861,0 -0.31785,0.0105 -0.47656,0.0117 -8.65432,-0.83139 -15.81346,-3.96664 -21.46484,-9.42383 -7.16466,-6.34046 -10.7461,-15.60759 -10.7461,-27.80078 h 96.57227 v -25.16797 c -0.19902,-19.99683 -6.51644,-35.70044 -18.95508,-47.11328 -12.23963,-11.21773 -27.21706,-16.92404 -44.92969,-17.11914 z m 0,28.82422 c 9.35386,0 17.01577,2.87763 22.98633,8.63281 6.07006,6.04783 9.30509,14.97239 9.70313,26.77539 h -65.37696 c 0.59706,-11.803 3.83014,-20.72756 9.70118,-26.77539 5.97054,-5.75518 13.63246,-8.63281 22.98632,-8.63281 z m 0,126.61328 c 0.56355,0 1.12062,0.0104 1.67188,0.0312 0.0783,0.003 0.15604,0.009 0.23437,0.0117 8.49312,0.36889 15.52051,3.23081 21.08008,8.58985 6.07006,6.04781 9.30509,14.97433 9.70313,26.77734 h -65.37696 c 0.59706,-11.80301 3.83014,-20.72953 9.70118,-26.77734 5.97054,-5.7552 13.63246,-8.63282 22.98632,-8.63282 z"
       style="font-style:normal;font-variant:normal;font-weight:normal;font-stretch:normal;font-size:302.661px;line-height:1.25;font-family:'DIN Alternate';-inkscape-font-specification:'DIN Alternate Normal';font-variant-ligatures:normal;font-variant-caps:normal;font-variant-numeric:normal;font-variant-east-asian:normal;fill:#023020;fill-opacity:1;stroke:none;stroke-width:8.10699"
       id="path851" />
  </g>
  <g
     transform="translate(-166.88086,-305.92383)"
     style="display:none"
     inkscape:label="Layer 2"
     id="layer2"
     inkscape:groupmode="layer">
    <text
       xml:space="preserve"
       style="font-style:normal;font-variant:normal;font-weight:normal;font-stretch:normal;font-size:302.661px;line-height:1.25;font-family:'DIN Alternate';-inkscape-font-specification:'DIN Alternate Normal';font-variant-ligatures:normal;font-variant-caps:normal;font-variant-numeric:normal;font-variant-east-asian:normal;fill:#000000;fill-opacity:1;stroke:none;stroke-width:8.10699"
       x="698.03192"
       y="524.15442"
       id="text27"
       transform="scale(1.010015,0.99008431)"><tspan
         sodipodi:role="line"
         x="698.03192"
         y="524.15442"
         style="font-style:normal;font-variant:normal;font-weight:normal;font-stretch:normal;font-size:302.661px;font-family:'DIN Alternate';-inkscape-font-specification:'DIN Alternate Normal';font-variant-ligatures:normal;font-variant-caps:normal;font-variant-numeric:normal;font-variant-east-asian:normal;stroke-width:8.10699"
         id="tspan33">e</tspan></text>
  </g>
</svg>
